<?xml version="1.0" encoding="UTF-8"?>
<svg version="1.1" xmlns="http://www.w3.org/2000/svg" width="236" height="236">
<path d="M0 0 C1.13888672 0.02239746 2.27777344 0.04479492 3.45117188 0.06787109 C18.78129506 0.58845456 31.69689142 5.60591972 42.4375 16.6875 C49.24469387 24.32822781 52.54030587 34.20087977 52.58467102 44.33987427 C52.59540398 46.03020531 52.59540398 46.03020531 52.60635376 47.75468445 C52.60904266 48.98177628 52.61173157 50.2088681 52.61450195 51.47314453 C52.62107315 52.77293747 52.62764435 54.07273041 52.63441467 55.41191101 C52.65539014 59.7146991 52.66581247 64.01748726 52.67578125 68.3203125 C52.67983155 69.80625298 52.68394855 71.29219328 52.68813133 72.77813339 C52.70717044 79.76255199 52.72140291 86.74696012 52.7297433 93.73139966 C52.73950457 101.771196 52.7658002 109.81071622 52.80624419 117.85041535 C52.83649324 124.07908892 52.85122055 130.30768374 52.85452431 136.53642929 C52.8568652 140.24969314 52.86569883 143.9626616 52.89098549 147.6758461 C52.91879164 151.82590093 52.91440837 155.97534596 52.9074707 160.12548828 C52.92668579 161.94790794 52.92668579 161.94790794 52.94628906 163.80714417 C52.86369388 177.41246912 47.94595075 187.78386145 38.9375 197.8125 C27.32705533 208.9123515 12.6874865 211.00445109 -2.72827148 210.94628906 C-4.47204071 210.95154602 -4.47204071 210.95154602 -6.2510376 210.95690918 C-10.06195191 210.96565143 -13.87267782 210.95990348 -17.68359375 210.953125 C-20.35197679 210.9544739 -23.0203543 210.95641382 -25.68873596 210.95892334 C-31.26915494 210.96254832 -36.84952076 210.95780318 -42.42993164 210.94824219 C-48.8516267 210.93736581 -55.27319465 210.94088319 -61.69488662 210.951895 C-67.23921009 210.96101635 -72.78349562 210.96222945 -78.32782418 210.95701766 C-81.62565746 210.95392376 -84.92341905 210.95421956 -88.22125053 210.96009064 C-91.90336392 210.96520773 -95.58523825 210.95737281 -99.26733398 210.94628906 C-100.33834854 210.95033752 -101.4093631 210.95438599 -102.51283264 210.95855713 C-119.13262235 210.866549 -132.26955601 207.45314154 -144.46875 195.87890625 C-156.06237043 183.64967066 -157.88528339 168.90064415 -157.82128906 152.69360352 C-157.8247937 151.57302551 -157.82829834 150.45244751 -157.83190918 149.2979126 C-157.8406262 145.63734522 -157.83491258 141.97697519 -157.828125 138.31640625 C-157.82947462 135.74535587 -157.83141763 133.17430574 -157.83392334 130.60325623 C-157.83686112 125.23148921 -157.83281538 119.85979468 -157.82324219 114.48803711 C-157.81236691 108.31513866 -157.81588426 102.14237248 -157.826895 95.96947724 C-157.83713514 89.98459173 -157.83596149 83.99976987 -157.83013153 78.01487541 C-157.82880615 75.48934854 -157.83040336 72.96381824 -157.83509064 70.43829536 C-157.89633197 28.17118269 -157.89633197 28.17118269 -142.984375 12.65234375 C-138.08840336 8.68028934 -132.44715722 5.89951401 -126.5625 3.6875 C-125.84263916 3.41156006 -125.12277832 3.13562012 -124.38110352 2.85131836 C-114.88827208 -0.25960562 -105.0048498 0.11293735 -95.125 0 C-93.10610936 -0.03239676 -91.08722919 -0.06545181 -89.06835938 -0.09912109 C-59.3933047 -0.55596772 -29.67151606 -0.77103402 0 0 Z " fill="#FEFEFE" transform="translate(170.5625,13.3125)"/>
<path d="M0 0 C3.1875 1.125 3.1875 1.125 5.125 2.8125 C6.50985491 5.82659597 6.50860722 7.82811026 6.1875 11.125 C4.60205078 13.34399414 4.60205078 13.34399414 2.3828125 15.41015625 C1.57618164 16.18174072 0.76955078 16.9533252 -0.06152344 17.74829102 C-0.9280957 18.55322998 -1.79466797 19.35816895 -2.6875 20.1875 C-10.20914025 27.42760011 -16.82136765 34.57796383 -22.8125 43.125 C-23.44027344 43.99253906 -24.06804687 44.86007813 -24.71484375 45.75390625 C-32.32752354 56.39833161 -39.66898156 67.61398915 -45.40234375 79.390625 C-46.8125 82.125 -46.8125 82.125 -48.625 83.5625 C-51.76819414 84.37074992 -53.70595064 84.0759845 -56.8125 83.125 C-59.125 81.0625 -59.125 81.0625 -61.8125 78.125 C-63.30250117 76.80115984 -64.80341968 75.48954947 -66.3125 74.1875 C-68.92076252 71.89395346 -71.33585264 69.6549407 -73.5 66.9375 C-75.75966232 64.01076256 -75.75966232 64.01076256 -78.8125 61.625 C-86.44337248 55.2659396 -86.44337248 55.2659396 -87.4375 49.5 C-86.8125 46.125 -86.8125 46.125 -84.75 43.625 C-81.80393166 42.12062468 -80.13612696 41.69519769 -76.88354492 42.25146484 C-72.01039784 44.30688395 -68.54347876 48.89344472 -65 52.6875 C-63.31019012 54.46364126 -61.61639016 56.23599789 -59.91796875 58.00390625 C-59.17699951 58.7935376 -58.43603027 59.58316895 -57.67260742 60.39672852 C-55.99148269 62.35188956 -55.99148269 62.35188956 -53.8125 62.125 C-53.255625 60.9596875 -52.69875 59.794375 -52.125 58.59375 C-50.00199711 54.35519335 -47.53219622 50.50071482 -44.8125 46.625 C-44.33393555 45.93921875 -43.85537109 45.2534375 -43.36230469 44.546875 C-41.85476064 42.39967775 -40.33537889 40.26134233 -38.8125 38.125 C-38.33748047 37.45339844 -37.86246094 36.78179687 -37.37304688 36.08984375 C-31.71562617 28.1367709 -25.70814048 20.65327053 -19.0625 13.5 C-18.15999512 12.52353516 -18.15999512 12.52353516 -17.23925781 11.52734375 C-6.48315866 0.21256258 -6.48315866 0.21256258 0 0 Z " fill="#2864E6" transform="translate(158.8125,76.875)"/>
<path d="M0 0 C0.33 0 0.66 0 1 0 C1 1.65 1 3.3 1 5 C0.34 5 -0.32 5 -1 5 C-1.0825 5.928125 -1.165 6.85625 -1.25 7.8125 C-2 11 -2 11 -3.875 12.875 C-6 14 -6 14 -9 14 C-9 13.34 -9 12.68 -9 12 C-10.32 11.34 -11.64 10.68 -13 10 C-13 8.02 -13 6.04 -13 4 C-10.75390625 5.953125 -10.75390625 5.953125 -8.5078125 7.90625 C-7.04063579 9.19572458 -7.04063579 9.19572458 -5 9 C-4.72285156 8.43410156 -4.44570312 7.86820313 -4.16015625 7.28515625 C-3.79792969 6.55167969 -3.43570313 5.81820312 -3.0625 5.0625 C-2.70285156 4.33160156 -2.34320313 3.60070312 -1.97265625 2.84765625 C-1 1 -1 1 0 0 Z " fill="#2765DF" transform="translate(110,130)"/>
<path d="M0 0 C-0.66 0.66 -1.32 1.32 -2 2 C-4.625 1.625 -4.625 1.625 -7 1 C-7 1.66 -7 2.32 -7 3 C-7.99 3.66 -8.98 4.32 -10 5 C-10.72382467 7.05925139 -10.72382467 7.05925139 -11 9 C-9.68 8.34 -8.36 7.68 -7 7 C-6.67 8.32 -6.34 9.64 -6 11 C-6.66 11 -7.32 11 -8 11 C-8.33 11.66 -8.66 12.32 -9 13 C-10.5 11.9375 -10.5 11.9375 -12 10 C-12.5 6.5625 -12.5 6.5625 -12 3 C-8.2764518 -1.51339176 -5.47398896 -1.2879974 0 0 Z " fill="#3B6ACF" transform="translate(84,120)"/>
<path d="M0 0 C0.99 0 1.98 0 3 0 C3.33 1.65 3.66 3.3 4 5 C2.700625 5.2475 2.700625 5.2475 1.375 5.5 C-3.27738998 7.56772888 -5.26312893 10.82675687 -8 15 C-8.66 14.67 -9.32 14.34 -10 14 C-8.40764308 11.65777143 -6.80226443 9.32669812 -5.1875 7 C-4.73568359 6.33226563 -4.28386719 5.66453125 -3.81835938 4.9765625 C-2.62049188 3.26282507 -1.31599578 1.62478849 0 0 Z " fill="#3069DE" transform="translate(128,104)"/>
<path d="M0 0 C-0.639375 0.103125 -1.27875 0.20625 -1.9375 0.3125 C-2.618125 0.539375 -3.29875 0.76625 -4 1 C-4.33 1.99 -4.66 2.98 -5 4 C-5.99 4 -6.98 4 -8 4 C-8.33 4.99 -8.66 5.98 -9 7 C-11.4375 8.75 -11.4375 8.75 -14 10 C-14.66 9.67 -15.32 9.34 -16 9 C-14.37744772 7.51814875 -12.75188112 6.03959744 -11.125 4.5625 C-10.22007812 3.73878906 -9.31515625 2.91507812 -8.3828125 2.06640625 C-5.08577388 -0.79282888 -4.09465961 -1.22839788 0 0 Z " fill="#4672D9" transform="translate(159,78)"/>
<path d="M0 0 C0.66 1.32 1.32 2.64 2 4 C1.54625 4.4125 1.0925 4.825 0.625 5.25 C-1.05950374 7.06408095 -1.99265971 8.75285627 -3 11 C-3.66 11 -4.32 11 -5 11 C-3.77472971 6.94718288 -2.30119506 3.55639236 0 0 Z " fill="#C3DAFC" transform="translate(117,148)"/>
<path d="M0 0 C0.33 0 0.66 0 1 0 C1 1.98 1 3.96 1 6 C2.32 5.34 3.64 4.68 5 4 C5.33 5.32 5.66 6.64 6 8 C5.34 8 4.68 8 4 8 C3.67 8.66 3.34 9.32 3 10 C1.5 8.9375 1.5 8.9375 0 7 C-0.1875 3.3125 -0.1875 3.3125 0 0 Z " fill="#3C70E5" transform="translate(72,123)"/>
<path d="M0 0 C0.66 0.33 1.32 0.66 2 1 C3.25771532 6.11470895 3.25771532 6.11470895 3 9 C0.5625 11.5 0.5625 11.5 -2 13 C-2.66 12.67 -3.32 12.34 -4 12 C-3.34 11.505 -2.68 11.01 -2 10.5 C0.8827217 6.89659788 0.30200997 4.53014958 0 0 Z " fill="#C2D8FB" transform="translate(164,80)"/>
<path d="M0 0 C0.33 1.32 0.66 2.64 1 4 C-1.3125 6.0625 -1.3125 6.0625 -4 8 C-4.99 7.67 -5.98 7.34 -7 7 C-4.69 4.69 -2.38 2.38 0 0 Z " fill="#DAEAFE" transform="translate(156,96)"/>
<path d="M0 0 C0.99 0 1.98 0 3 0 C1.47291037 3.43595166 -0.59927045 6.11912454 -3 9 C-2.44271087 5.65626525 -1.64826111 2.96687001 0 0 Z " fill="#D7EAFE" transform="translate(124,105)"/>
<path d="M0 0 C0.33 0 0.66 0 1 0 C1 1.65 1 3.3 1 5 C0.34 5 -0.32 5 -1 5 C-1.33 5.99 -1.66 6.98 -2 8 C-2.66 8 -3.32 8 -4 8 C-2.87548273 5.0280615 -1.77706209 2.66559313 0 0 Z " fill="#4073DB" transform="translate(110,130)"/>
<path d="M0 0 C1 4 1 4 0.00390625 5.703125 C-1.33072917 7.13541667 -2.66536458 8.56770833 -4 10 C-4.66 9.67 -5.32 9.34 -6 9 C-4.02 6.03 -2.04 3.06 0 0 Z " fill="#3F70DB" transform="translate(124,109)"/>
<path d="M0 0 C-0.639375 0.103125 -1.27875 0.20625 -1.9375 0.3125 C-2.9584375 0.6528125 -2.9584375 0.6528125 -4 1 C-4.33 1.99 -4.66 2.98 -5 4 C-5.99 4 -6.98 4 -8 4 C-5.97675095 -0.48005146 -4.79569304 -1.43870791 0 0 Z " fill="#366AD0" transform="translate(159,78)"/>
</svg>
